<?xml version="1.0" encoding="utf-8"?>
<!-- Generator: Adobe Illustrator 25.0.0, SVG Export Plug-In . SVG Version: 6.00 Build 0)  -->
<svg version="1.1" xmlns="http://www.w3.org/2000/svg" xmlns:xlink="http://www.w3.org/1999/xlink" x="0px" y="0px"
	 viewBox="0 0 48 48" style="enable-background:new 0 0 48 48;" xml:space="preserve">
<style type="text/css">
	.st0{display:none;}
	.st1{fill:#3B82F6;}
	.st2{fill:#FFFFFF;}
</style>
<g id="Layer_3">
</g>
<g id="Layer_2" class="st0">
	
		<image style="display:inline;overflow:visible;" width="600" height="360" xlink:href="C:\Users\User\Downloads\WhatsApp Image 2025-02-08 at 1.51.30 AM.jpeg"  transform="matrix(0.1948 0 0 0.2583 -34.9024 -17.6102)">
	</image>
</g>
<g id="Layer_4">
	<polygon class="st1" points="45.6,45.9 13.7,45.9 38.1,2.1 47.7,2.1 28.4,36 45.7,36 	"/>
	<polygon class="st1" points="12.7,28.1 20.6,28.1 25.1,20.3 12.7,20.3 	"/>
	<path class="st2" d="M8.3,45.9l0-31.1c0,0,0-2.5,2-4.1c0.4-0.3,1.1-0.6,1.6-0.6l19.2,0h0.3l4.8-8h-25c0,0-9.4,0-9.7,11.6v32.2H8.3z
		"/>
</g>
</svg>
